<svg width="215" height="34" viewBox="0 0 215 34" fill="none" xmlns="http://www.w3.org/2000/svg">
<path d="M40.3307 29.3454H35.4478V11.7363H53.026V29.3454H48.1442V15.1572H40.3307V29.3454Z" fill="#60B238"/>
<path d="M55.394 16.5649V33.9993H59.8938V28.0372C61.4018 29.6982 63.8584 29.8237 64.4505 29.8237C68.742 29.8237 71.3755 27.0303 71.3755 22.9802C71.3755 18.7543 68.7707 16.0879 64.5397 16.0879C63.4731 16.0879 61.4018 16.264 59.6852 18.1008H59.5967L59.6258 16.5649H55.394ZM59.6852 22.9296C59.6852 19.3583 61.8464 18.6542 63.208 18.6542C64.5397 18.6542 66.6998 19.3583 66.6998 22.9296C66.6998 25.1443 65.7829 27.2582 63.208 27.2582C60.5741 27.2582 59.6852 25.1443 59.6852 22.9296Z" fill="#60B238"/>
<path d="M82.5316 27.813C80.875 29.3967 79.2789 29.8252 77.5015 29.8252C72.6481 29.8252 72.4697 26.1017 72.4697 24.5676V16.5664H76.9684V23.9629C76.9684 26.5046 77.8289 27.2597 79.4847 27.2597C82.3244 27.2597 82.5316 24.6681 82.5316 23.7372V16.5664H87.0321V29.3464H82.5316V27.813Z" fill="#60B238"/>
<path d="M93.4836 23.9629H96.2362C98.3654 23.9629 98.8097 24.6175 98.8097 25.4731C98.8097 26.0261 98.5125 26.7812 96.2919 26.7812H93.4836V23.9629ZM88.9849 16.5664V29.3464H97.9226C101.178 29.3464 103.426 28.6925 103.426 26.0764C103.426 24.0638 102.33 23.1835 99.8453 22.7311V22.6552C101.473 22.4288 102.895 21.397 102.895 19.6618C102.895 16.5664 99.3428 16.5664 97.9517 16.5664H88.9849ZM93.4836 19.1338H95.9085C97.1815 19.1338 98.2755 19.3349 98.2755 20.3905C98.2755 21.5489 96.5596 21.5738 95.82 21.5738H93.4836V19.1338Z" fill="#60B238"/>
<path d="M109.108 20.6913C109.108 18.8046 111.061 18.6542 111.861 18.6542C112.364 18.6542 114.227 18.6795 114.288 20.3395C114.288 20.4653 114.288 20.5658 114.288 20.6913C114.199 21.9491 113.015 21.6978 109.702 22.1253C106.977 22.5025 104.107 23.2062 104.107 26.1255C104.107 27.1822 104.551 29.8237 109.345 29.8237C111.181 29.8237 113.194 29.3449 114.376 28.0878H114.467L114.85 29.3449H119.585V29.1192C118.727 28.9427 118.668 28.0878 118.697 26.7038L118.786 20.8667C118.816 19.3836 118.668 16.0879 111.891 16.0879C110.263 16.0879 105.024 16.2383 104.817 20.6913H109.108ZM114.317 24.0623C114.317 26.6285 112.127 27.2582 111.033 27.2582C110.203 27.2582 108.723 26.9804 108.723 25.7736C108.723 24.3389 110.41 24.0623 111.358 23.9364C113.104 23.6847 112.956 23.7607 114.317 23.2569V24.0623Z" fill="#60B238"/>
<path d="M119.289 19.1338V16.5664H133.731V19.1338H128.759V29.3464H124.261V19.1338H119.289Z" fill="#60B238"/>
<path d="M139.474 15.1572H150.689V11.7363H134.589V29.3454H144.473C149.269 29.3454 152.345 27.6359 152.345 24.0375C152.345 18.4034 146.19 18.2768 144.473 18.2768H139.474V15.1572ZM139.474 21.6983H143.527C144.713 21.6983 147.079 21.8246 147.079 23.9369C147.079 25.5977 145.362 25.9242 143.439 25.9242H139.474V21.6983Z" fill="#60B238"/>
<path d="M158.207 20.6913C158.207 18.8046 160.161 18.6542 160.958 18.6542C161.462 18.6542 163.327 18.6795 163.387 20.3395C163.387 20.4653 163.387 20.5658 163.387 20.6913C163.297 21.9491 162.114 21.6978 158.797 22.1253C156.076 22.5025 153.206 23.2062 153.206 26.1255C153.206 27.1822 153.648 29.8237 158.443 29.8237C160.278 29.8237 162.29 29.3449 163.474 28.0878H163.562L163.948 29.3449H168.682V29.1192C167.827 28.9427 167.765 28.0878 167.796 26.7038L167.884 20.8667C167.914 19.3836 167.765 16.0879 160.987 16.0879C159.362 16.0879 154.122 16.2383 153.915 20.6913H158.207ZM163.415 24.0623C163.415 26.6285 161.225 27.2582 160.131 27.2582C159.302 27.2582 157.822 26.9804 157.822 25.7736C157.822 24.3389 159.508 24.0623 160.454 23.9364C162.202 23.6847 162.053 23.7607 163.415 23.2569V24.0623Z" fill="#60B238"/>
<path d="M174.306 29.3464H169.807V16.5664H174.306V21.372H179.722V16.5664H184.221V29.3464H179.722V23.9379H174.306V29.3464Z" fill="#60B238"/>
<path d="M195.585 16.5664H200.584L194.4 22.5535L200.882 29.3464H195.612L190.76 23.7622H190.672V29.3464H186.175V16.5664H190.672V21.6993H190.76L195.585 16.5664Z" fill="#60B238"/>
<path d="M2.77783 29.3916H14.0455V17.8984H2.77783V29.3916Z" fill="#373435"/>
<path d="M25.6518 6.07591C25.6518 9.98403 25.6518 19.4096 25.6518 23.3177C24.5816 23.3177 24.3932 23.3177 23.3532 23.3177C22.3607 14.7907 17.108 9.43437 8.74694 8.42203C8.74694 7.36125 8.74694 7.16971 8.74694 6.07591C12.5787 6.07591 21.82 6.07591 25.6518 6.07591ZM2.78955 0V14.3053H5.76915C13.6101 14.3053 17.5857 18.3598 17.5857 26.3551V29.3944H31.6092V0H2.78955Z" fill="#60B238"/>
</svg>
